<svg width="800" height="1492" viewBox="0 0 800 1492" class="keymap" xmlns="http://www.w3.org/2000/svg" xmlns:xlink="http://www.w3.org/1999/xlink">
<defs>/* start glyphs */
<svg id="mdi:apple-keyboard-control">
<svg xmlns="http://www.w3.org/2000/svg" id="mdi-apple-keyboard-control" viewBox="0 0 24 24"><path d="M19.78,11.78L18.36,13.19L12,6.83L5.64,13.19L4.22,11.78L12,4L19.78,11.78Z" /></svg>
</svg>
<svg id="mdi:apple-keyboard-option">
<svg xmlns="http://www.w3.org/2000/svg" id="mdi-apple-keyboard-option" viewBox="0 0 24 24"><path d="M3,4H9.11L16.15,18H21V20H14.88L7.84,6H3V4M14,4H21V6H14V4Z" /></svg>
</svg>
<svg id="mdi:apple-keyboard-shift">
<svg xmlns="http://www.w3.org/2000/svg" id="mdi-apple-keyboard-shift" viewBox="0 0 24 24"><path d="M15,18V12H17.17L12,6.83L6.83,12H9V18H15M12,4L22,14H17V20H7V14H2L12,4Z" /></svg>
</svg>
<svg id="mdi:keyboard-space">
<svg xmlns="http://www.w3.org/2000/svg" id="mdi-keyboard-space" viewBox="0 0 24 24"><path d="M3 15H5V19H19V15H21V19C21 20.1 20.1 21 19 21H5C3.9 21 3 20.1 3 19V15Z" /></svg>
</svg>
<svg id="mdi:keyboard-tab">
<svg xmlns="http://www.w3.org/2000/svg" id="mdi-keyboard-tab" viewBox="0 0 24 24"><path d="M20,18H22V6H20M11.59,7.41L15.17,11H1V13H15.17L11.59,16.58L13,18L19,12L13,6L11.59,7.41Z" /></svg>
</svg>
<svg id="mdi:penguin">
<svg xmlns="http://www.w3.org/2000/svg" id="mdi-penguin" viewBox="0 0 24 24"><path d="M19,16C19,17.72 18.37,19.3 17.34,20.5C17.75,20.89 18,21.41 18,22H6C6,21.41 6.25,20.89 6.66,20.5C5.63,19.3 5,17.72 5,16H3C3,14.75 3.57,13.64 4.46,12.91L4.47,12.89C6,11.81 7,10 7,8V7A5,5 0 0,1 12,2A5,5 0 0,1 17,7V8C17,10 18,11.81 19.53,12.89L19.54,12.91C20.43,13.64 21,14.75 21,16H19M16,16A4,4 0 0,0 12,12A4,4 0 0,0 8,16A4,4 0 0,0 12,20A4,4 0 0,0 16,16M10,9L12,10.5L14,9L12,7.5L10,9M10,5A1,1 0 0,0 9,6A1,1 0 0,0 10,7A1,1 0 0,0 11,6A1,1 0 0,0 10,5M14,5A1,1 0 0,0 13,6A1,1 0 0,0 14,7A1,1 0 0,0 15,6A1,1 0 0,0 14,5Z" /></svg>
</svg>
</defs>/* end glyphs */
<style>/* inherit to force styles through use tags */
svg path {
    fill: inherit;
}

/* font and background color specifications */
svg.keymap {
    font-family: SFMono-Regular,Consolas,Liberation Mono,Menlo,monospace;
    font-size: 14px;
    font-kerning: normal;
    text-rendering: optimizeLegibility;
    fill: #24292e;
}

/* default key styling */
rect.key {
    fill: #f6f8fa;
}

rect.key, rect.combo {
    stroke: #c9cccf;
    stroke-width: 1;
}

/* default key side styling, only used is draw_key_sides is set */
rect.side {
    filter: brightness(90%);
}

/* color accent for combo boxes */
rect.combo, rect.combo-separate {
    fill: #cdf;
}

/* color accent for held keys */
rect.held, rect.combo.held {
    fill: #fdd;
}

/* color accent for ghost (optional) keys */
rect.ghost, rect.combo.ghost {
    stroke-dasharray: 4, 4;
    stroke-width: 2;
}

text {
    text-anchor: middle;
    dominant-baseline: middle;
}

/* styling for layer labels */
text.label {
    font-weight: bold;
    text-anchor: start;
    stroke: white;
    stroke-width: 4;
    paint-order: stroke;
}

/* styling for optional footer */
text.footer {
    text-anchor: end;
    dominant-baseline: auto;
    stroke: white;
    stroke-width: 4;
    paint-order: stroke;
}

/* styling for combo tap, and key non-tap label text */
text.combo, text.hold, text.shifted, text.left, text.right {
    font-size: 11px;
}

text.hold {
    text-anchor: middle;
    dominant-baseline: auto;
}

text.shifted {
    text-anchor: middle;
    dominant-baseline: hanging;
}

text.left {
    text-anchor: start;
}

text.right {
    text-anchor: end;
}

text.layer-activator {
    text-decoration: underline;
}

/* styling for hold/shifted label text in combo box */
text.combo.hold, text.combo.shifted, text.combo.left, text.combo.right {
    font-size: 8px;
}

/* lighter symbol for transparent keys */
text.trans {
    fill: #7b7e81;
}

/* styling for combo dendrons */
path.combo {
    stroke-width: 1;
    stroke: gray;
    fill: none;
}

/* Start Tabler Icons Cleanup */
/* cannot use height/width with glyphs */
.icon-tabler > path {
    fill: inherit;
    stroke: inherit;
    stroke-width: 2;
}
/* hide tabler's default box */
.icon-tabler > path[stroke="none"][fill="none"] {
    visibility: hidden;
}
/* End Tabler Icons Cleanup */

/* For default styles, see https://github.com/caksoylar/keymap-drawer/blob/main/keymap_drawer/config.py#L85 */

svg.keymap {
  font-family: Ubuntu Mono, Inconsolata, Consolas, Liberation Mono, Menlo, monospace;
  font-size: 12px;
  font-weight: bold;
  text-rendering: optimizeLegibility;
}

/* Color accent for held keys */
rect.held, rect.combo.held {
    fill: #ffc;
}

/* Technique borrowed and extended from https://github.com/englmaxi/zmk-config/blob/master/keymap-drawer/config.yaml */
.sym_sub_text.tap {
  translate: -5px 2px;
  font-size: 20px;
}
.sym_sub_text.shifted {
  translate: 10px 13px;
  font-size: 10px;
  opacity: 1.0;
}
.hold {
  translate: 0px -8px;
  font-size: 10px;
  opacity: 1.0;
}
.combo.sym_sub_text.tap {
  translate: -1px 1px;
}
.combo.sym_sub_text.shifted {
  translate: 7px 5px;
  font-size: 10px;
  opacity: 1.0;
}

/* Toggle */
.toggle.shifted {
  translate: -10px 12px;
}

.toggle.hold {
  translate: 13px -23px;
}

/* Variant for tap-dances */
.tap_dance.tap {
  translate: -7px 0px;
  font-size: 12px;
}
.tap_dance.shifted {
  translate: 7px 17px;
  font-size: 12px;
  opacity: 1.0;
}

/* Variant for symbol next to symbol */
.sym_by_sym.tap {
  translate: -6px 0px;
}
.sym_by_sym.shifted {
  translate: 10px 12px;
  opacity: 1.0;
}

.combo.sym_by_sym.tap {
  translate: -35px 0px;
}
.combo.sym_by_sym.shifted {
  translate: 35px 20px;
  opacity: 1.0;
}

.combo.sym_by_sym.hold {
  visibility: hidden;
}

/* hide hold box for combo sym_by_sym */
.combo.sym_by_sym.hold > path[stroke="none"][fill="none"] {
  visibility: hidden;
}
</style>
<g transform="translate(40, 0)" class="layer-default_layer">
<text x="0" y="28" class="label" id="default_layer">default_layer:</text>
<g transform="translate(0, 56)">
<g transform="translate(30, 87)" class="key keypos-0">
<rect rx="6" ry="6" x="-28" y="-28" width="56" height="56" class="key side"/>
<rect rx="4" ry="4" x="-22" y="-26" width="44" height="44" class="key"/>
<text x="0" y="-4" class="key tap">Q</text>
</g>
<g transform="translate(90, 49)" class="key keypos-1">
<rect rx="6" ry="6" x="-28" y="-28" width="56" height="56" class="key side"/>
<rect rx="4" ry="4" x="-22" y="-26" width="44" height="44" class="key"/>
<text x="0" y="-4" class="key tap">W</text>
</g>
<g transform="translate(150, 30)" class="key keypos-2">
<rect rx="6" ry="6" x="-28" y="-28" width="56" height="56" class="key side"/>
<rect rx="4" ry="4" x="-22" y="-26" width="44" height="44" class="key"/>
<text x="0" y="-4" class="key tap">F</text>
</g>
<g transform="translate(210, 47)" class="key keypos-3">
<rect rx="6" ry="6" x="-28" y="-28" width="56" height="56" class="key side"/>
<rect rx="4" ry="4" x="-22" y="-26" width="44" height="44" class="key"/>
<text x="0" y="-4" class="key tap">P</text>
</g>
<g transform="translate(270, 55)" class="key keypos-4">
<rect rx="6" ry="6" x="-28" y="-28" width="56" height="56" class="key side"/>
<rect rx="4" ry="4" x="-22" y="-26" width="44" height="44" class="key"/>
<text x="0" y="-4" class="key tap">B</text>
</g>
<g transform="translate(450, 55)" class="key keypos-5">
<rect rx="6" ry="6" x="-28" y="-28" width="56" height="56" class="key side"/>
<rect rx="4" ry="4" x="-22" y="-26" width="44" height="44" class="key"/>
<text x="0" y="-4" class="key tap">J</text>
</g>
<g transform="translate(510, 47)" class="key keypos-6">
<rect rx="6" ry="6" x="-28" y="-28" width="56" height="56" class="key side"/>
<rect rx="4" ry="4" x="-22" y="-26" width="44" height="44" class="key"/>
<text x="0" y="-4" class="key tap">L</text>
</g>
<g transform="translate(570, 30)" class="key keypos-7">
<rect rx="6" ry="6" x="-28" y="-28" width="56" height="56" class="key side"/>
<rect rx="4" ry="4" x="-22" y="-26" width="44" height="44" class="key"/>
<text x="0" y="-4" class="key tap">U</text>
</g>
<g transform="translate(630, 49)" class="key keypos-8">
<rect rx="6" ry="6" x="-28" y="-28" width="56" height="56" class="key side"/>
<rect rx="4" ry="4" x="-22" y="-26" width="44" height="44" class="key"/>
<text x="0" y="-4" class="key tap">Y</text>
</g>
<g transform="translate(690, 87)" class="key keypos-9">
<rect rx="6" ry="6" x="-28" y="-28" width="56" height="56" class="key side"/>
<rect rx="4" ry="4" x="-22" y="-26" width="44" height="44" class="key"/>
<text x="0" y="-4" class="key tap">&#x27;</text>
</g>
<g transform="translate(30, 147)" class="key keypos-10">
<rect rx="6" ry="6" x="-28" y="-28" width="56" height="56" class="key side"/>
<rect rx="4" ry="4" x="-22" y="-26" width="44" height="44" class="key"/>
<text x="0" y="-4" class="key tap">A</text>
<use href="#mdi:penguin" xlink:href="#mdi:penguin" x="-8" y="11" height="15" width="15.0" class="key hold glyph mdi:penguin"/>
</g>
<g transform="translate(90, 109)" class="key keypos-11">
<rect rx="6" ry="6" x="-28" y="-28" width="56" height="56" class="key side"/>
<rect rx="4" ry="4" x="-22" y="-26" width="44" height="44" class="key"/>
<text x="0" y="-4" class="key tap">R</text>
<use href="#mdi:apple-keyboard-option" xlink:href="#mdi:apple-keyboard-option" x="-8" y="11" height="15" width="15.0" class="key hold glyph mdi:apple-keyboard-option"/>
</g>
<g transform="translate(150, 90)" class="key keypos-12">
<rect rx="6" ry="6" x="-28" y="-28" width="56" height="56" class="key side"/>
<rect rx="4" ry="4" x="-22" y="-26" width="44" height="44" class="key"/>
<text x="0" y="-4" class="key tap">S</text>
<use href="#mdi:apple-keyboard-control" xlink:href="#mdi:apple-keyboard-control" x="-8" y="11" height="15" width="15.0" class="key hold glyph mdi:apple-keyboard-control"/>
</g>
<g transform="translate(210, 107)" class="key keypos-13">
<rect rx="6" ry="6" x="-28" y="-28" width="56" height="56" class="key side"/>
<rect rx="4" ry="4" x="-22" y="-26" width="44" height="44" class="key"/>
<text x="0" y="-4" class="key tap">T</text>
<use href="#mdi:apple-keyboard-shift" xlink:href="#mdi:apple-keyboard-shift" x="-8" y="11" height="15" width="15.0" class="key hold glyph mdi:apple-keyboard-shift"/>
</g>
<g transform="translate(270, 115)" class="key keypos-14">
<rect rx="6" ry="6" x="-28" y="-28" width="56" height="56" class="key side"/>
<rect rx="4" ry="4" x="-22" y="-26" width="44" height="44" class="key"/>
<text x="0" y="-4" class="key tap">G</text>
</g>
<g transform="translate(450, 115)" class="key keypos-15">
<rect rx="6" ry="6" x="-28" y="-28" width="56" height="56" class="key side"/>
<rect rx="4" ry="4" x="-22" y="-26" width="44" height="44" class="key"/>
<text x="0" y="-4" class="key tap">M</text>
</g>
<g transform="translate(510, 107)" class="key keypos-16">
<rect rx="6" ry="6" x="-28" y="-28" width="56" height="56" class="key side"/>
<rect rx="4" ry="4" x="-22" y="-26" width="44" height="44" class="key"/>
<text x="0" y="-4" class="key tap">N</text>
<use href="#mdi:apple-keyboard-shift" xlink:href="#mdi:apple-keyboard-shift" x="-8" y="11" height="15" width="15.0" class="key hold glyph mdi:apple-keyboard-shift"/>
</g>
<g transform="translate(570, 90)" class="key keypos-17">
<rect rx="6" ry="6" x="-28" y="-28" width="56" height="56" class="key side"/>
<rect rx="4" ry="4" x="-22" y="-26" width="44" height="44" class="key"/>
<text x="0" y="-4" class="key tap">E</text>
<use href="#mdi:apple-keyboard-control" xlink:href="#mdi:apple-keyboard-control" x="-8" y="11" height="15" width="15.0" class="key hold glyph mdi:apple-keyboard-control"/>
</g>
<g transform="translate(630, 109)" class="key keypos-18">
<rect rx="6" ry="6" x="-28" y="-28" width="56" height="56" class="key side"/>
<rect rx="4" ry="4" x="-22" y="-26" width="44" height="44" class="key"/>
<text x="0" y="-4" class="key tap">I</text>
<use href="#mdi:apple-keyboard-option" xlink:href="#mdi:apple-keyboard-option" x="-8" y="11" height="15" width="15.0" class="key hold glyph mdi:apple-keyboard-option"/>
</g>
<g transform="translate(690, 147)" class="key keypos-19">
<rect rx="6" ry="6" x="-28" y="-28" width="56" height="56" class="key side"/>
<rect rx="4" ry="4" x="-22" y="-26" width="44" height="44" class="key"/>
<text x="0" y="-4" class="key tap">O</text>
<use href="#mdi:penguin" xlink:href="#mdi:penguin" x="-8" y="11" height="15" width="15.0" class="key hold glyph mdi:penguin"/>
</g>
<g transform="translate(30, 207)" class="key keypos-20">
<rect rx="6" ry="6" x="-28" y="-28" width="56" height="56" class="key side"/>
<rect rx="4" ry="4" x="-22" y="-26" width="44" height="44" class="key"/>
<text x="0" y="-4" class="key tap">Z</text>
</g>
<g transform="translate(90, 169)" class="key keypos-21">
<rect rx="6" ry="6" x="-28" y="-28" width="56" height="56" class="key side"/>
<rect rx="4" ry="4" x="-22" y="-26" width="44" height="44" class="key"/>
<text x="0" y="-4" class="key tap">X</text>
</g>
<g transform="translate(150, 150)" class="key keypos-22">
<rect rx="6" ry="6" x="-28" y="-28" width="56" height="56" class="key side"/>
<rect rx="4" ry="4" x="-22" y="-26" width="44" height="44" class="key"/>
<text x="0" y="-4" class="key tap">C</text>
</g>
<g transform="translate(210, 167)" class="key keypos-23">
<rect rx="6" ry="6" x="-28" y="-28" width="56" height="56" class="key side"/>
<rect rx="4" ry="4" x="-22" y="-26" width="44" height="44" class="key"/>
<text x="0" y="-4" class="key tap">D</text>
</g>
<g transform="translate(270, 175)" class="key keypos-24">
<rect rx="6" ry="6" x="-28" y="-28" width="56" height="56" class="key side"/>
<rect rx="4" ry="4" x="-22" y="-26" width="44" height="44" class="key"/>
<text x="0" y="-4" class="key tap">V</text>
</g>
<g transform="translate(450, 175)" class="key keypos-25">
<rect rx="6" ry="6" x="-28" y="-28" width="56" height="56" class="key side"/>
<rect rx="4" ry="4" x="-22" y="-26" width="44" height="44" class="key"/>
<text x="0" y="-4" class="key tap">K</text>
</g>
<g transform="translate(510, 167)" class="key keypos-26">
<rect rx="6" ry="6" x="-28" y="-28" width="56" height="56" class="key side"/>
<rect rx="4" ry="4" x="-22" y="-26" width="44" height="44" class="key"/>
<text x="0" y="-4" class="key tap">H</text>
</g>
<g transform="translate(570, 150)" class="key keypos-27">
<rect rx="6" ry="6" x="-28" y="-28" width="56" height="56" class="key side"/>
<rect rx="4" ry="4" x="-22" y="-26" width="44" height="44" class="key"/>
<text x="0" y="-4" class="key tap">,</text>
</g>
<g transform="translate(630, 169)" class="key keypos-28">
<rect rx="6" ry="6" x="-28" y="-28" width="56" height="56" class="key side"/>
<rect rx="4" ry="4" x="-22" y="-26" width="44" height="44" class="key"/>
<text x="0" y="-4" class="key tap">.</text>
</g>
<g transform="translate(690, 207)" class="key keypos-29">
<rect rx="6" ry="6" x="-28" y="-28" width="56" height="56" class="key side"/>
<rect rx="4" ry="4" x="-22" y="-26" width="44" height="44" class="key"/>
<text x="0" y="-4" class="key tap">;</text>
</g>
<g transform="translate(237, 236) rotate(15.0)" class="key keypos-30">
<rect rx="6" ry="6" x="-28" y="-28" width="56" height="56" class="key side"/>
<rect rx="4" ry="4" x="-22" y="-26" width="44" height="44" class="key"/>
<use href="#mdi:keyboard-space" xlink:href="#mdi:keyboard-space" x="-9" y="-13" height="18" width="18.0" class="key tap glyph mdi:keyboard-space"/>
<a href="#nav_layer">
<text x="0" y="26" class="key hold layer-activator"><tspan style="font-size: 67%">nav_layer</tspan></text>
</a></g>
<g transform="translate(299, 262) rotate(30.0)" class="key keypos-31">
<rect rx="6" ry="6" x="-28" y="-28" width="56" height="56" class="key side"/>
<rect rx="4" ry="4" x="-22" y="-26" width="44" height="44" class="key"/>
<text x="0" y="-4" class="key tap">⮐</text>
</g>
<g transform="translate(421, 262) rotate(-30.0)" class="key keypos-32">
<rect rx="6" ry="6" x="-28" y="-28" width="56" height="56" class="key side"/>
<rect rx="4" ry="4" x="-22" y="-26" width="44" height="44" class="key"/>
<text x="0" y="-4" class="key tap">BSPC</text>
<a href="#num_layer">
<text x="0" y="26" class="key hold layer-activator"><tspan style="font-size: 67%">num_layer</tspan></text>
</a><text x="0" y="-26" class="key shifted">DEL</text>
</g>
<g transform="translate(483, 236) rotate(-15.0)" class="key keypos-33">
<rect rx="6" ry="6" x="-28" y="-28" width="56" height="56" class="key side"/>
<rect rx="4" ry="4" x="-22" y="-26" width="44" height="44" class="key"/>
<use href="#mdi:apple-keyboard-shift" xlink:href="#mdi:apple-keyboard-shift" x="-9" y="-13" height="18" width="18.0" class="key tap glyph mdi:apple-keyboard-shift"/>
<text x="0" y="26" class="key hold">sticky</text>
</g>
<g class="combo combopos-0">
<rect rx="6" ry="6" x="105" y="146" width="30" height="28" class="combo"/>
<text x="120" y="160" class="combo tap"><tspan style="font-size: 67%">&amp;copy_cut</tspan></text>
</g>
<g class="combo combopos-1">
<rect rx="6" ry="6" x="165" y="145" width="30" height="28" class="combo"/>
<text x="180" y="159" class="combo tap">S+INS</text>
</g>
</g>
</g>
<g transform="translate(40, 359)" class="layer-nav_layer">
<text x="0" y="28" class="label" id="nav_layer">nav_layer:</text>
<g transform="translate(0, 56)">
<g transform="translate(30, 87)" class="key trans keypos-0">
<rect rx="6" ry="6" x="-28" y="-28" width="56" height="56" class="key trans side"/>
<rect rx="4" ry="4" x="-22" y="-26" width="44" height="44" class="key trans"/>
<text x="0" y="-4" class="key trans tap">▽</text>
</g>
<g transform="translate(90, 49)" class="key trans keypos-1">
<rect rx="6" ry="6" x="-28" y="-28" width="56" height="56" class="key trans side"/>
<rect rx="4" ry="4" x="-22" y="-26" width="44" height="44" class="key trans"/>
<text x="0" y="-4" class="key trans tap">▽</text>
</g>
<g transform="translate(150, 30)" class="key trans keypos-2">
<rect rx="6" ry="6" x="-28" y="-28" width="56" height="56" class="key trans side"/>
<rect rx="4" ry="4" x="-22" y="-26" width="44" height="44" class="key trans"/>
<text x="0" y="-4" class="key trans tap">▽</text>
</g>
<g transform="translate(210, 47)" class="key trans keypos-3">
<rect rx="6" ry="6" x="-28" y="-28" width="56" height="56" class="key trans side"/>
<rect rx="4" ry="4" x="-22" y="-26" width="44" height="44" class="key trans"/>
<text x="0" y="-4" class="key trans tap">▽</text>
</g>
<g transform="translate(270, 55)" class="key trans keypos-4">
<rect rx="6" ry="6" x="-28" y="-28" width="56" height="56" class="key trans side"/>
<rect rx="4" ry="4" x="-22" y="-26" width="44" height="44" class="key trans"/>
<text x="0" y="-4" class="key trans tap">▽</text>
</g>
<g transform="translate(450, 55)" class="key keypos-5">
<rect rx="6" ry="6" x="-28" y="-28" width="56" height="56" class="key side"/>
<rect rx="4" ry="4" x="-22" y="-26" width="44" height="44" class="key"/>
<text x="0" y="-4" class="key tap">
<tspan x="0" dy="-0.6em">PG</tspan><tspan x="0" dy="1.2em">UP</tspan>
</text>
</g>
<g transform="translate(510, 47)" class="key keypos-6">
<rect rx="6" ry="6" x="-28" y="-28" width="56" height="56" class="key side"/>
<rect rx="4" ry="4" x="-22" y="-26" width="44" height="44" class="key"/>
<text x="0" y="-4" class="key tap">Home</text>
</g>
<g transform="translate(570, 30)" class="key keypos-7">
<rect rx="6" ry="6" x="-28" y="-28" width="56" height="56" class="key side"/>
<rect rx="4" ry="4" x="-22" y="-26" width="44" height="44" class="key"/>
<text x="0" y="-4" class="key tap">⬆️</text>
</g>
<g transform="translate(630, 49)" class="key keypos-8">
<rect rx="6" ry="6" x="-28" y="-28" width="56" height="56" class="key side"/>
<rect rx="4" ry="4" x="-22" y="-26" width="44" height="44" class="key"/>
<text x="0" y="-4" class="key tap">End</text>
</g>
<g transform="translate(690, 87)" class="key trans keypos-9">
<rect rx="6" ry="6" x="-28" y="-28" width="56" height="56" class="key trans side"/>
<rect rx="4" ry="4" x="-22" y="-26" width="44" height="44" class="key trans"/>
<text x="0" y="-4" class="key trans tap">▽</text>
</g>
<g transform="translate(30, 147)" class="key keypos-10">
<rect rx="6" ry="6" x="-28" y="-28" width="56" height="56" class="key side"/>
<rect rx="4" ry="4" x="-22" y="-26" width="44" height="44" class="key"/>
<use href="#mdi:penguin" xlink:href="#mdi:penguin" x="-9" y="-13" height="18" width="18.0" class="key tap glyph mdi:penguin"/>
<text x="0" y="26" class="key hold">sticky</text>
</g>
<g transform="translate(90, 109)" class="key keypos-11">
<rect rx="6" ry="6" x="-28" y="-28" width="56" height="56" class="key side"/>
<rect rx="4" ry="4" x="-22" y="-26" width="44" height="44" class="key"/>
<use href="#mdi:apple-keyboard-option" xlink:href="#mdi:apple-keyboard-option" x="-9" y="-13" height="18" width="18.0" class="key tap glyph mdi:apple-keyboard-option"/>
<text x="0" y="26" class="key hold">sticky</text>
</g>
<g transform="translate(150, 90)" class="key keypos-12">
<rect rx="6" ry="6" x="-28" y="-28" width="56" height="56" class="key side"/>
<rect rx="4" ry="4" x="-22" y="-26" width="44" height="44" class="key"/>
<use href="#mdi:apple-keyboard-control" xlink:href="#mdi:apple-keyboard-control" x="-9" y="-13" height="18" width="18.0" class="key tap glyph mdi:apple-keyboard-control"/>
<text x="0" y="26" class="key hold">sticky</text>
</g>
<g transform="translate(210, 107)" class="key keypos-13">
<rect rx="6" ry="6" x="-28" y="-28" width="56" height="56" class="key side"/>
<rect rx="4" ry="4" x="-22" y="-26" width="44" height="44" class="key"/>
<use href="#mdi:apple-keyboard-shift" xlink:href="#mdi:apple-keyboard-shift" x="-9" y="-13" height="18" width="18.0" class="key tap glyph mdi:apple-keyboard-shift"/>
<text x="0" y="26" class="key hold">sticky</text>
</g>
<g transform="translate(270, 115)" class="key trans keypos-14">
<rect rx="6" ry="6" x="-28" y="-28" width="56" height="56" class="key trans side"/>
<rect rx="4" ry="4" x="-22" y="-26" width="44" height="44" class="key trans"/>
<text x="0" y="-4" class="key trans tap">▽</text>
</g>
<g transform="translate(450, 115)" class="key keypos-15">
<rect rx="6" ry="6" x="-28" y="-28" width="56" height="56" class="key side"/>
<rect rx="4" ry="4" x="-22" y="-26" width="44" height="44" class="key"/>
<text x="0" y="-4" class="key tap">
<tspan x="0" dy="-0.6em">PG</tspan><tspan x="0" dy="1.2em">DN</tspan>
</text>
</g>
<g transform="translate(510, 107)" class="key keypos-16">
<rect rx="6" ry="6" x="-28" y="-28" width="56" height="56" class="key side"/>
<rect rx="4" ry="4" x="-22" y="-26" width="44" height="44" class="key"/>
<text x="0" y="-4" class="key tap">⬅️</text>
</g>
<g transform="translate(570, 90)" class="key keypos-17">
<rect rx="6" ry="6" x="-28" y="-28" width="56" height="56" class="key side"/>
<rect rx="4" ry="4" x="-22" y="-26" width="44" height="44" class="key"/>
<text x="0" y="-4" class="key tap">⬇️</text>
</g>
<g transform="translate(630, 109)" class="key keypos-18">
<rect rx="6" ry="6" x="-28" y="-28" width="56" height="56" class="key side"/>
<rect rx="4" ry="4" x="-22" y="-26" width="44" height="44" class="key"/>
<text x="0" y="-4" class="key tap">➡️</text>
</g>
<g transform="translate(690, 147)" class="key trans keypos-19">
<rect rx="6" ry="6" x="-28" y="-28" width="56" height="56" class="key trans side"/>
<rect rx="4" ry="4" x="-22" y="-26" width="44" height="44" class="key trans"/>
<text x="0" y="-4" class="key trans tap">▽</text>
</g>
<g transform="translate(30, 207)" class="key trans keypos-20">
<rect rx="6" ry="6" x="-28" y="-28" width="56" height="56" class="key trans side"/>
<rect rx="4" ry="4" x="-22" y="-26" width="44" height="44" class="key trans"/>
<text x="0" y="-4" class="key trans tap">▽</text>
</g>
<g transform="translate(90, 169)" class="key trans keypos-21">
<rect rx="6" ry="6" x="-28" y="-28" width="56" height="56" class="key trans side"/>
<rect rx="4" ry="4" x="-22" y="-26" width="44" height="44" class="key trans"/>
<text x="0" y="-4" class="key trans tap">▽</text>
</g>
<g transform="translate(150, 150)" class="key trans keypos-22">
<rect rx="6" ry="6" x="-28" y="-28" width="56" height="56" class="key trans side"/>
<rect rx="4" ry="4" x="-22" y="-26" width="44" height="44" class="key trans"/>
<text x="0" y="-4" class="key trans tap">▽</text>
</g>
<g transform="translate(210, 167)" class="key trans keypos-23">
<rect rx="6" ry="6" x="-28" y="-28" width="56" height="56" class="key trans side"/>
<rect rx="4" ry="4" x="-22" y="-26" width="44" height="44" class="key trans"/>
<text x="0" y="-4" class="key trans tap">▽</text>
</g>
<g transform="translate(270, 175)" class="key trans keypos-24">
<rect rx="6" ry="6" x="-28" y="-28" width="56" height="56" class="key trans side"/>
<rect rx="4" ry="4" x="-22" y="-26" width="44" height="44" class="key trans"/>
<text x="0" y="-4" class="key trans tap">▽</text>
</g>
<g transform="translate(450, 175)" class="key trans keypos-25">
<rect rx="6" ry="6" x="-28" y="-28" width="56" height="56" class="key trans side"/>
<rect rx="4" ry="4" x="-22" y="-26" width="44" height="44" class="key trans"/>
<text x="0" y="-4" class="key trans tap">▽</text>
</g>
<g transform="translate(510, 167)" class="key trans keypos-26">
<rect rx="6" ry="6" x="-28" y="-28" width="56" height="56" class="key trans side"/>
<rect rx="4" ry="4" x="-22" y="-26" width="44" height="44" class="key trans"/>
<text x="0" y="-4" class="key trans tap">▽</text>
</g>
<g transform="translate(570, 150)" class="key trans keypos-27">
<rect rx="6" ry="6" x="-28" y="-28" width="56" height="56" class="key trans side"/>
<rect rx="4" ry="4" x="-22" y="-26" width="44" height="44" class="key trans"/>
<text x="0" y="-4" class="key trans tap">▽</text>
</g>
<g transform="translate(630, 169)" class="key trans keypos-28">
<rect rx="6" ry="6" x="-28" y="-28" width="56" height="56" class="key trans side"/>
<rect rx="4" ry="4" x="-22" y="-26" width="44" height="44" class="key trans"/>
<text x="0" y="-4" class="key trans tap">▽</text>
</g>
<g transform="translate(690, 207)" class="key trans keypos-29">
<rect rx="6" ry="6" x="-28" y="-28" width="56" height="56" class="key trans side"/>
<rect rx="4" ry="4" x="-22" y="-26" width="44" height="44" class="key trans"/>
<text x="0" y="-4" class="key trans tap">▽</text>
</g>
<g transform="translate(237, 236) rotate(15.0)" class="key held keypos-30">
<rect rx="6" ry="6" x="-28" y="-28" width="56" height="56" class="key held side"/>
<rect rx="4" ry="4" x="-22" y="-26" width="44" height="44" class="key held"/>
</g>
<g transform="translate(299, 262) rotate(30.0)" class="key trans keypos-31">
<rect rx="6" ry="6" x="-28" y="-28" width="56" height="56" class="key trans side"/>
<rect rx="4" ry="4" x="-22" y="-26" width="44" height="44" class="key trans"/>
<text x="0" y="-4" class="key trans tap">▽</text>
</g>
<g transform="translate(421, 262) rotate(-30.0)" class="key trans keypos-32">
<rect rx="6" ry="6" x="-28" y="-28" width="56" height="56" class="key trans side"/>
<rect rx="4" ry="4" x="-22" y="-26" width="44" height="44" class="key trans"/>
<text x="0" y="-4" class="key trans tap">▽</text>
</g>
<g transform="translate(483, 236) rotate(-15.0)" class="key trans keypos-33">
<rect rx="6" ry="6" x="-28" y="-28" width="56" height="56" class="key trans side"/>
<rect rx="4" ry="4" x="-22" y="-26" width="44" height="44" class="key trans"/>
<text x="0" y="-4" class="key trans tap">▽</text>
</g>
<g class="combo combopos-0">
<rect rx="6" ry="6" x="105" y="146" width="30" height="28" class="combo"/>
<text x="120" y="160" class="combo tap"><tspan style="font-size: 67%">&amp;copy_cut</tspan></text>
</g>
<g class="combo combopos-1">
<rect rx="6" ry="6" x="165" y="145" width="30" height="28" class="combo"/>
<text x="180" y="159" class="combo tap">S+INS</text>
</g>
</g>
</g>
<g transform="translate(40, 718)" class="layer-num_layer">
<text x="0" y="28" class="label" id="num_layer">num_layer:</text>
<g transform="translate(0, 56)">
<g transform="translate(30, 87)" class="key keypos-0">
<rect rx="6" ry="6" x="-28" y="-28" width="56" height="56" class="key side"/>
<rect rx="4" ry="4" x="-22" y="-26" width="44" height="44" class="key"/>
<text x="0" y="-4" class="key tap">Esc</text>
</g>
<g transform="translate(90, 49)" class="key keypos-1">
<rect rx="6" ry="6" x="-28" y="-28" width="56" height="56" class="key side"/>
<rect rx="4" ry="4" x="-22" y="-26" width="44" height="44" class="key"/>
<text x="0" y="-4" class="key tap">7</text>
</g>
<g transform="translate(150, 30)" class="key keypos-2">
<rect rx="6" ry="6" x="-28" y="-28" width="56" height="56" class="key side"/>
<rect rx="4" ry="4" x="-22" y="-26" width="44" height="44" class="key"/>
<text x="0" y="-4" class="key tap">8</text>
</g>
<g transform="translate(210, 47)" class="key keypos-3">
<rect rx="6" ry="6" x="-28" y="-28" width="56" height="56" class="key side"/>
<rect rx="4" ry="4" x="-22" y="-26" width="44" height="44" class="key"/>
<text x="0" y="-4" class="key tap">9</text>
</g>
<g transform="translate(270, 55)" class="key trans keypos-4">
<rect rx="6" ry="6" x="-28" y="-28" width="56" height="56" class="key trans side"/>
<rect rx="4" ry="4" x="-22" y="-26" width="44" height="44" class="key trans"/>
<text x="0" y="-4" class="key trans tap">▽</text>
</g>
<g transform="translate(450, 55)" class="key trans keypos-5">
<rect rx="6" ry="6" x="-28" y="-28" width="56" height="56" class="key trans side"/>
<rect rx="4" ry="4" x="-22" y="-26" width="44" height="44" class="key trans"/>
<text x="0" y="-4" class="key trans tap">▽</text>
</g>
<g transform="translate(510, 47)" class="key trans keypos-6">
<rect rx="6" ry="6" x="-28" y="-28" width="56" height="56" class="key trans side"/>
<rect rx="4" ry="4" x="-22" y="-26" width="44" height="44" class="key trans"/>
<text x="0" y="-4" class="key trans tap">▽</text>
</g>
<g transform="translate(570, 30)" class="key trans keypos-7">
<rect rx="6" ry="6" x="-28" y="-28" width="56" height="56" class="key trans side"/>
<rect rx="4" ry="4" x="-22" y="-26" width="44" height="44" class="key trans"/>
<text x="0" y="-4" class="key trans tap">▽</text>
</g>
<g transform="translate(630, 49)" class="key trans keypos-8">
<rect rx="6" ry="6" x="-28" y="-28" width="56" height="56" class="key trans side"/>
<rect rx="4" ry="4" x="-22" y="-26" width="44" height="44" class="key trans"/>
<text x="0" y="-4" class="key trans tap">▽</text>
</g>
<g transform="translate(690, 87)" class="key trans keypos-9">
<rect rx="6" ry="6" x="-28" y="-28" width="56" height="56" class="key trans side"/>
<rect rx="4" ry="4" x="-22" y="-26" width="44" height="44" class="key trans"/>
<text x="0" y="-4" class="key trans tap">▽</text>
</g>
<g transform="translate(30, 147)" class="key keypos-10">
<rect rx="6" ry="6" x="-28" y="-28" width="56" height="56" class="key side"/>
<rect rx="4" ry="4" x="-22" y="-26" width="44" height="44" class="key"/>
<use href="#mdi:keyboard-tab" xlink:href="#mdi:keyboard-tab" x="-9" y="-13" height="18" width="18.0" class="key tap glyph mdi:keyboard-tab"/>
</g>
<g transform="translate(90, 109)" class="key keypos-11">
<rect rx="6" ry="6" x="-28" y="-28" width="56" height="56" class="key side"/>
<rect rx="4" ry="4" x="-22" y="-26" width="44" height="44" class="key"/>
<text x="0" y="-4" class="key tap">4</text>
</g>
<g transform="translate(150, 90)" class="key keypos-12">
<rect rx="6" ry="6" x="-28" y="-28" width="56" height="56" class="key side"/>
<rect rx="4" ry="4" x="-22" y="-26" width="44" height="44" class="key"/>
<text x="0" y="-4" class="key tap">5</text>
</g>
<g transform="translate(210, 107)" class="key keypos-13">
<rect rx="6" ry="6" x="-28" y="-28" width="56" height="56" class="key side"/>
<rect rx="4" ry="4" x="-22" y="-26" width="44" height="44" class="key"/>
<text x="0" y="-4" class="key tap">6</text>
</g>
<g transform="translate(270, 115)" class="key trans keypos-14">
<rect rx="6" ry="6" x="-28" y="-28" width="56" height="56" class="key trans side"/>
<rect rx="4" ry="4" x="-22" y="-26" width="44" height="44" class="key trans"/>
<text x="0" y="-4" class="key trans tap">▽</text>
</g>
<g transform="translate(450, 115)" class="key trans keypos-15">
<rect rx="6" ry="6" x="-28" y="-28" width="56" height="56" class="key trans side"/>
<rect rx="4" ry="4" x="-22" y="-26" width="44" height="44" class="key trans"/>
<text x="0" y="-4" class="key trans tap">▽</text>
</g>
<g transform="translate(510, 107)" class="key keypos-16">
<rect rx="6" ry="6" x="-28" y="-28" width="56" height="56" class="key side"/>
<rect rx="4" ry="4" x="-22" y="-26" width="44" height="44" class="key"/>
<use href="#mdi:apple-keyboard-shift" xlink:href="#mdi:apple-keyboard-shift" x="-9" y="-13" height="18" width="18.0" class="key tap glyph mdi:apple-keyboard-shift"/>
<text x="0" y="26" class="key hold">sticky</text>
</g>
<g transform="translate(570, 90)" class="key keypos-17">
<rect rx="6" ry="6" x="-28" y="-28" width="56" height="56" class="key side"/>
<rect rx="4" ry="4" x="-22" y="-26" width="44" height="44" class="key"/>
<use href="#mdi:apple-keyboard-control" xlink:href="#mdi:apple-keyboard-control" x="-9" y="-13" height="18" width="18.0" class="key tap glyph mdi:apple-keyboard-control"/>
<text x="0" y="26" class="key hold">sticky</text>
</g>
<g transform="translate(630, 109)" class="key keypos-18">
<rect rx="6" ry="6" x="-28" y="-28" width="56" height="56" class="key side"/>
<rect rx="4" ry="4" x="-22" y="-26" width="44" height="44" class="key"/>
<use href="#mdi:apple-keyboard-option" xlink:href="#mdi:apple-keyboard-option" x="-9" y="-13" height="18" width="18.0" class="key tap glyph mdi:apple-keyboard-option"/>
<text x="0" y="26" class="key hold">sticky</text>
</g>
<g transform="translate(690, 147)" class="key keypos-19">
<rect rx="6" ry="6" x="-28" y="-28" width="56" height="56" class="key side"/>
<rect rx="4" ry="4" x="-22" y="-26" width="44" height="44" class="key"/>
<use href="#mdi:penguin" xlink:href="#mdi:penguin" x="-9" y="-13" height="18" width="18.0" class="key tap glyph mdi:penguin"/>
<text x="0" y="26" class="key hold">sticky</text>
</g>
<g transform="translate(30, 207)" class="key trans keypos-20">
<rect rx="6" ry="6" x="-28" y="-28" width="56" height="56" class="key trans side"/>
<rect rx="4" ry="4" x="-22" y="-26" width="44" height="44" class="key trans"/>
<text x="0" y="-4" class="key trans tap">▽</text>
</g>
<g transform="translate(90, 169)" class="key keypos-21">
<rect rx="6" ry="6" x="-28" y="-28" width="56" height="56" class="key side"/>
<rect rx="4" ry="4" x="-22" y="-26" width="44" height="44" class="key"/>
<text x="0" y="-4" class="key tap">1</text>
</g>
<g transform="translate(150, 150)" class="key keypos-22">
<rect rx="6" ry="6" x="-28" y="-28" width="56" height="56" class="key side"/>
<rect rx="4" ry="4" x="-22" y="-26" width="44" height="44" class="key"/>
<text x="0" y="-4" class="key tap">2</text>
</g>
<g transform="translate(210, 167)" class="key keypos-23">
<rect rx="6" ry="6" x="-28" y="-28" width="56" height="56" class="key side"/>
<rect rx="4" ry="4" x="-22" y="-26" width="44" height="44" class="key"/>
<text x="0" y="-4" class="key tap">3</text>
</g>
<g transform="translate(270, 175)" class="key trans keypos-24">
<rect rx="6" ry="6" x="-28" y="-28" width="56" height="56" class="key trans side"/>
<rect rx="4" ry="4" x="-22" y="-26" width="44" height="44" class="key trans"/>
<text x="0" y="-4" class="key trans tap">▽</text>
</g>
<g transform="translate(450, 175)" class="key trans keypos-25">
<rect rx="6" ry="6" x="-28" y="-28" width="56" height="56" class="key trans side"/>
<rect rx="4" ry="4" x="-22" y="-26" width="44" height="44" class="key trans"/>
<text x="0" y="-4" class="key trans tap">▽</text>
</g>
<g transform="translate(510, 167)" class="key trans keypos-26">
<rect rx="6" ry="6" x="-28" y="-28" width="56" height="56" class="key trans side"/>
<rect rx="4" ry="4" x="-22" y="-26" width="44" height="44" class="key trans"/>
<text x="0" y="-4" class="key trans tap">▽</text>
</g>
<g transform="translate(570, 150)" class="key trans keypos-27">
<rect rx="6" ry="6" x="-28" y="-28" width="56" height="56" class="key trans side"/>
<rect rx="4" ry="4" x="-22" y="-26" width="44" height="44" class="key trans"/>
<text x="0" y="-4" class="key trans tap">▽</text>
</g>
<g transform="translate(630, 169)" class="key trans keypos-28">
<rect rx="6" ry="6" x="-28" y="-28" width="56" height="56" class="key trans side"/>
<rect rx="4" ry="4" x="-22" y="-26" width="44" height="44" class="key trans"/>
<text x="0" y="-4" class="key trans tap">▽</text>
</g>
<g transform="translate(690, 207)" class="key trans keypos-29">
<rect rx="6" ry="6" x="-28" y="-28" width="56" height="56" class="key trans side"/>
<rect rx="4" ry="4" x="-22" y="-26" width="44" height="44" class="key trans"/>
<text x="0" y="-4" class="key trans tap">▽</text>
</g>
<g transform="translate(237, 236) rotate(15.0)" class="key keypos-30">
<rect rx="6" ry="6" x="-28" y="-28" width="56" height="56" class="key side"/>
<rect rx="4" ry="4" x="-22" y="-26" width="44" height="44" class="key"/>
<text x="0" y="-4" class="key tap">0</text>
</g>
<g transform="translate(299, 262) rotate(30.0)" class="key trans keypos-31">
<rect rx="6" ry="6" x="-28" y="-28" width="56" height="56" class="key trans side"/>
<rect rx="4" ry="4" x="-22" y="-26" width="44" height="44" class="key trans"/>
<text x="0" y="-4" class="key trans tap">▽</text>
</g>
<g transform="translate(421, 262) rotate(-30.0)" class="key held keypos-32">
<rect rx="6" ry="6" x="-28" y="-28" width="56" height="56" class="key held side"/>
<rect rx="4" ry="4" x="-22" y="-26" width="44" height="44" class="key held"/>
</g>
<g transform="translate(483, 236) rotate(-15.0)" class="key trans keypos-33">
<rect rx="6" ry="6" x="-28" y="-28" width="56" height="56" class="key trans side"/>
<rect rx="4" ry="4" x="-22" y="-26" width="44" height="44" class="key trans"/>
<text x="0" y="-4" class="key trans tap">▽</text>
</g>
<g class="combo combopos-0">
<rect rx="6" ry="6" x="105" y="146" width="30" height="28" class="combo"/>
<text x="120" y="160" class="combo tap"><tspan style="font-size: 67%">&amp;copy_cut</tspan></text>
</g>
<g class="combo combopos-1">
<rect rx="6" ry="6" x="165" y="145" width="30" height="28" class="combo"/>
<text x="180" y="159" class="combo tap">S+INS</text>
</g>
</g>
</g>
<g transform="translate(40, 1077)" class="layer-german_layer">
<text x="0" y="28" class="label" id="german_layer">german_layer:</text>
<g transform="translate(0, 56)">
<g transform="translate(30, 87)" class="key trans keypos-0">
<rect rx="6" ry="6" x="-28" y="-28" width="56" height="56" class="key trans side"/>
<rect rx="4" ry="4" x="-22" y="-26" width="44" height="44" class="key trans"/>
<text x="0" y="-4" class="key trans tap">▽</text>
</g>
<g transform="translate(90, 49)" class="key trans keypos-1">
<rect rx="6" ry="6" x="-28" y="-28" width="56" height="56" class="key trans side"/>
<rect rx="4" ry="4" x="-22" y="-26" width="44" height="44" class="key trans"/>
<text x="0" y="-4" class="key trans tap">▽</text>
</g>
<g transform="translate(150, 30)" class="key trans keypos-2">
<rect rx="6" ry="6" x="-28" y="-28" width="56" height="56" class="key trans side"/>
<rect rx="4" ry="4" x="-22" y="-26" width="44" height="44" class="key trans"/>
<text x="0" y="-4" class="key trans tap">▽</text>
</g>
<g transform="translate(210, 47)" class="key trans keypos-3">
<rect rx="6" ry="6" x="-28" y="-28" width="56" height="56" class="key trans side"/>
<rect rx="4" ry="4" x="-22" y="-26" width="44" height="44" class="key trans"/>
<text x="0" y="-4" class="key trans tap">▽</text>
</g>
<g transform="translate(270, 55)" class="key trans keypos-4">
<rect rx="6" ry="6" x="-28" y="-28" width="56" height="56" class="key trans side"/>
<rect rx="4" ry="4" x="-22" y="-26" width="44" height="44" class="key trans"/>
<text x="0" y="-4" class="key trans tap">▽</text>
</g>
<g transform="translate(450, 55)" class="key trans keypos-5">
<rect rx="6" ry="6" x="-28" y="-28" width="56" height="56" class="key trans side"/>
<rect rx="4" ry="4" x="-22" y="-26" width="44" height="44" class="key trans"/>
<text x="0" y="-4" class="key trans tap">▽</text>
</g>
<g transform="translate(510, 47)" class="key trans keypos-6">
<rect rx="6" ry="6" x="-28" y="-28" width="56" height="56" class="key trans side"/>
<rect rx="4" ry="4" x="-22" y="-26" width="44" height="44" class="key trans"/>
<text x="0" y="-4" class="key trans tap">▽</text>
</g>
<g transform="translate(570, 30)" class="key keypos-7">
<rect rx="6" ry="6" x="-28" y="-28" width="56" height="56" class="key side"/>
<rect rx="4" ry="4" x="-22" y="-26" width="44" height="44" class="key"/>
<text x="0" y="-4" class="key tap"><tspan style="font-size: 60%">&amp;de_ue_lo…</tspan></text>
<text x="0" y="-26" class="key shifted"><tspan style="font-size: 60%">&amp;de_ue_up…</tspan></text>
</g>
<g transform="translate(630, 49)" class="key trans keypos-8">
<rect rx="6" ry="6" x="-28" y="-28" width="56" height="56" class="key trans side"/>
<rect rx="4" ry="4" x="-22" y="-26" width="44" height="44" class="key trans"/>
<text x="0" y="-4" class="key trans tap">▽</text>
</g>
<g transform="translate(690, 87)" class="key trans keypos-9">
<rect rx="6" ry="6" x="-28" y="-28" width="56" height="56" class="key trans side"/>
<rect rx="4" ry="4" x="-22" y="-26" width="44" height="44" class="key trans"/>
<text x="0" y="-4" class="key trans tap">▽</text>
</g>
<g transform="translate(30, 147)" class="key keypos-10">
<rect rx="6" ry="6" x="-28" y="-28" width="56" height="56" class="key side"/>
<rect rx="4" ry="4" x="-22" y="-26" width="44" height="44" class="key"/>
<text x="0" y="-4" class="key tap"><tspan style="font-size: 60%">&amp;de_ae_lo…</tspan></text>
<text x="0" y="-26" class="key shifted"><tspan style="font-size: 60%">&amp;de_ae_up…</tspan></text>
</g>
<g transform="translate(90, 109)" class="key trans keypos-11">
<rect rx="6" ry="6" x="-28" y="-28" width="56" height="56" class="key trans side"/>
<rect rx="4" ry="4" x="-22" y="-26" width="44" height="44" class="key trans"/>
<text x="0" y="-4" class="key trans tap">▽</text>
</g>
<g transform="translate(150, 90)" class="key keypos-12">
<rect rx="6" ry="6" x="-28" y="-28" width="56" height="56" class="key side"/>
<rect rx="4" ry="4" x="-22" y="-26" width="44" height="44" class="key"/>
<text x="0" y="-4" class="key tap"><tspan style="font-size: 60%">&amp;de_eszet…</tspan></text>
<text x="0" y="-26" class="key shifted"><tspan style="font-size: 60%">&amp;de_eszet…</tspan></text>
</g>
<g transform="translate(210, 107)" class="key trans keypos-13">
<rect rx="6" ry="6" x="-28" y="-28" width="56" height="56" class="key trans side"/>
<rect rx="4" ry="4" x="-22" y="-26" width="44" height="44" class="key trans"/>
<text x="0" y="-4" class="key trans tap">▽</text>
</g>
<g transform="translate(270, 115)" class="key trans keypos-14">
<rect rx="6" ry="6" x="-28" y="-28" width="56" height="56" class="key trans side"/>
<rect rx="4" ry="4" x="-22" y="-26" width="44" height="44" class="key trans"/>
<text x="0" y="-4" class="key trans tap">▽</text>
</g>
<g transform="translate(450, 115)" class="key trans keypos-15">
<rect rx="6" ry="6" x="-28" y="-28" width="56" height="56" class="key trans side"/>
<rect rx="4" ry="4" x="-22" y="-26" width="44" height="44" class="key trans"/>
<text x="0" y="-4" class="key trans tap">▽</text>
</g>
<g transform="translate(510, 107)" class="key trans keypos-16">
<rect rx="6" ry="6" x="-28" y="-28" width="56" height="56" class="key trans side"/>
<rect rx="4" ry="4" x="-22" y="-26" width="44" height="44" class="key trans"/>
<text x="0" y="-4" class="key trans tap">▽</text>
</g>
<g transform="translate(570, 90)" class="key keypos-17">
<rect rx="6" ry="6" x="-28" y="-28" width="56" height="56" class="key side"/>
<rect rx="4" ry="4" x="-22" y="-26" width="44" height="44" class="key"/>
<text x="0" y="-4" class="key tap"><tspan style="font-size: 60%">&amp;euro_sig…</tspan></text>
</g>
<g transform="translate(630, 109)" class="key trans keypos-18">
<rect rx="6" ry="6" x="-28" y="-28" width="56" height="56" class="key trans side"/>
<rect rx="4" ry="4" x="-22" y="-26" width="44" height="44" class="key trans"/>
<text x="0" y="-4" class="key trans tap">▽</text>
</g>
<g transform="translate(690, 147)" class="key keypos-19">
<rect rx="6" ry="6" x="-28" y="-28" width="56" height="56" class="key side"/>
<rect rx="4" ry="4" x="-22" y="-26" width="44" height="44" class="key"/>
<text x="0" y="-4" class="key tap"><tspan style="font-size: 60%">&amp;de_oe_lo…</tspan></text>
<text x="0" y="-26" class="key shifted"><tspan style="font-size: 60%">&amp;de_oe_up…</tspan></text>
</g>
<g transform="translate(30, 207)" class="key trans keypos-20">
<rect rx="6" ry="6" x="-28" y="-28" width="56" height="56" class="key trans side"/>
<rect rx="4" ry="4" x="-22" y="-26" width="44" height="44" class="key trans"/>
<text x="0" y="-4" class="key trans tap">▽</text>
</g>
<g transform="translate(90, 169)" class="key trans keypos-21">
<rect rx="6" ry="6" x="-28" y="-28" width="56" height="56" class="key trans side"/>
<rect rx="4" ry="4" x="-22" y="-26" width="44" height="44" class="key trans"/>
<text x="0" y="-4" class="key trans tap">▽</text>
</g>
<g transform="translate(150, 150)" class="key trans keypos-22">
<rect rx="6" ry="6" x="-28" y="-28" width="56" height="56" class="key trans side"/>
<rect rx="4" ry="4" x="-22" y="-26" width="44" height="44" class="key trans"/>
<text x="0" y="-4" class="key trans tap">▽</text>
</g>
<g transform="translate(210, 167)" class="key trans keypos-23">
<rect rx="6" ry="6" x="-28" y="-28" width="56" height="56" class="key trans side"/>
<rect rx="4" ry="4" x="-22" y="-26" width="44" height="44" class="key trans"/>
<text x="0" y="-4" class="key trans tap">▽</text>
</g>
<g transform="translate(270, 175)" class="key trans keypos-24">
<rect rx="6" ry="6" x="-28" y="-28" width="56" height="56" class="key trans side"/>
<rect rx="4" ry="4" x="-22" y="-26" width="44" height="44" class="key trans"/>
<text x="0" y="-4" class="key trans tap">▽</text>
</g>
<g transform="translate(450, 175)" class="key trans keypos-25">
<rect rx="6" ry="6" x="-28" y="-28" width="56" height="56" class="key trans side"/>
<rect rx="4" ry="4" x="-22" y="-26" width="44" height="44" class="key trans"/>
<text x="0" y="-4" class="key trans tap">▽</text>
</g>
<g transform="translate(510, 167)" class="key trans keypos-26">
<rect rx="6" ry="6" x="-28" y="-28" width="56" height="56" class="key trans side"/>
<rect rx="4" ry="4" x="-22" y="-26" width="44" height="44" class="key trans"/>
<text x="0" y="-4" class="key trans tap">▽</text>
</g>
<g transform="translate(570, 150)" class="key trans keypos-27">
<rect rx="6" ry="6" x="-28" y="-28" width="56" height="56" class="key trans side"/>
<rect rx="4" ry="4" x="-22" y="-26" width="44" height="44" class="key trans"/>
<text x="0" y="-4" class="key trans tap">▽</text>
</g>
<g transform="translate(630, 169)" class="key trans keypos-28">
<rect rx="6" ry="6" x="-28" y="-28" width="56" height="56" class="key trans side"/>
<rect rx="4" ry="4" x="-22" y="-26" width="44" height="44" class="key trans"/>
<text x="0" y="-4" class="key trans tap">▽</text>
</g>
<g transform="translate(690, 207)" class="key trans keypos-29">
<rect rx="6" ry="6" x="-28" y="-28" width="56" height="56" class="key trans side"/>
<rect rx="4" ry="4" x="-22" y="-26" width="44" height="44" class="key trans"/>
<text x="0" y="-4" class="key trans tap">▽</text>
</g>
<g transform="translate(237, 236) rotate(15.0)" class="key trans keypos-30">
<rect rx="6" ry="6" x="-28" y="-28" width="56" height="56" class="key trans side"/>
<rect rx="4" ry="4" x="-22" y="-26" width="44" height="44" class="key trans"/>
<text x="0" y="-4" class="key trans tap">▽</text>
</g>
<g transform="translate(299, 262) rotate(30.0)" class="key trans keypos-31">
<rect rx="6" ry="6" x="-28" y="-28" width="56" height="56" class="key trans side"/>
<rect rx="4" ry="4" x="-22" y="-26" width="44" height="44" class="key trans"/>
<text x="0" y="-4" class="key trans tap">▽</text>
</g>
<g transform="translate(421, 262) rotate(-30.0)" class="key trans keypos-32">
<rect rx="6" ry="6" x="-28" y="-28" width="56" height="56" class="key trans side"/>
<rect rx="4" ry="4" x="-22" y="-26" width="44" height="44" class="key trans"/>
<text x="0" y="-4" class="key trans tap">▽</text>
</g>
<g transform="translate(483, 236) rotate(-15.0)" class="key trans keypos-33">
<rect rx="6" ry="6" x="-28" y="-28" width="56" height="56" class="key trans side"/>
<rect rx="4" ry="4" x="-22" y="-26" width="44" height="44" class="key trans"/>
<text x="0" y="-4" class="key trans tap">▽</text>
</g>
<g class="combo combopos-0">
<rect rx="6" ry="6" x="105" y="146" width="30" height="28" class="combo"/>
<text x="120" y="160" class="combo tap"><tspan style="font-size: 67%">&amp;copy_cut</tspan></text>
</g>
<g class="combo combopos-1">
<rect rx="6" ry="6" x="165" y="145" width="30" height="28" class="combo"/>
<text x="180" y="159" class="combo tap">S+INS</text>
</g>
</g>
</g>
</svg>
